<svg xmlns="http://www.w3.org/2000/svg" width="375" viewBox="0 0 375 375" height="375" version="1.0"><defs><clipPath id="a"><path d="M 37.5 37.5 L 337.5 37.5 L 337.5 337.5 L 37.5 337.5 Z M 37.5 37.5"/></clipPath></defs><g clip-path="url(#a)"><path fill="#F178B6" d="M 78.066406 37.5 C 55.800781 37.5 37.5 55.800781 37.5 78.066406 L 37.5 297.023438 C 37.5 319.199219 55.800781 337.5 78.066406 337.5 L 297.023438 337.5 C 319.199219 337.5 337.5 319.199219 337.5 297.023438 L 337.5 78.066406 C 337.5 55.800781 319.199219 37.5 297.023438 37.5 Z M 78.066406 60.578125 L 297.023438 60.578125 C 306.761719 60.578125 314.421875 68.238281 314.421875 78.066406 L 314.421875 297.023438 C 314.421875 306.761719 306.761719 314.421875 297.023438 314.421875 L 78.066406 314.421875 C 68.238281 314.421875 60.578125 306.761719 60.578125 297.023438 L 60.578125 78.066406 C 60.578125 68.238281 68.238281 60.578125 78.066406 60.578125 Z M 106.730469 83.652344 C 94.019531 83.652344 83.652344 94.019531 83.652344 106.730469 C 83.652344 119.441406 94.019531 129.808594 106.730469 129.808594 C 119.441406 129.808594 129.808594 119.441406 129.808594 106.730469 C 129.808594 94.019531 119.441406 83.652344 106.730469 83.652344 Z M 83.652344 152.882812 L 83.652344 291.347656 L 129.808594 291.347656 L 129.808594 152.882812 Z M 152.882812 152.882812 L 152.882812 291.347656 L 199.039062 291.347656 L 199.039062 229.507812 C 199.039062 210.304688 200.839844 193.089844 223.917969 193.089844 C 246.632812 193.089844 245.191406 213.730469 245.191406 230.769531 L 245.191406 291.347656 L 291.347656 291.347656 L 291.347656 223.015625 C 291.347656 183.351562 283.054688 152.882812 238.070312 152.882812 C 216.4375 152.882812 205.527344 161.539062 199.578125 173.078125 L 199.039062 173.078125 L 199.039062 152.882812 Z M 152.882812 152.882812"/></g></svg>