<svg xmlns="http://www.w3.org/2000/svg" contentScriptType="text/ecmascript" width="375" viewBox="0 0 375 375" height="375" version="1.0"><defs><clipPath id="a"><path d="M 48.011719 171 L 64 171 L 64 204 L 48.011719 204 Z M 48.011719 171"/></clipPath><clipPath id="b"><path d="M 153 56.03125 L 169 56.03125 L 169 319.28125 L 153 319.28125 Z M 153 56.03125"/></clipPath><clipPath id="c"><path d="M 311 171 L 327.011719 171 L 327.011719 204 L 311 204 Z M 311 171"/></clipPath></defs><g clip-path="url(#a)"><path fill="#F178B6" d="M 55.761719 171.578125 C 51.480469 171.578125 48.011719 175.050781 48.011719 179.335938 L 48.011719 195.941406 C 48.011719 200.226562 51.480469 203.699219 55.761719 203.699219 C 60.042969 203.699219 63.511719 200.226562 63.511719 195.941406 L 63.511719 179.335938 C 63.511719 175.050781 60.042969 171.578125 55.761719 171.578125 Z M 55.761719 171.578125"/></g><path fill="#F178B6" d="M 82.113281 149.480469 C 77.832031 149.480469 74.363281 152.953125 74.363281 157.238281 L 74.363281 218.042969 C 74.363281 222.328125 77.832031 225.800781 82.113281 225.800781 C 86.394531 225.800781 89.863281 222.328125 89.863281 218.042969 L 89.863281 157.238281 C 89.863281 152.953125 86.394531 149.480469 82.113281 149.480469 Z M 82.113281 149.480469"/><path fill="#F178B6" d="M 108.460938 109.820312 C 104.179688 109.820312 100.710938 113.292969 100.710938 117.582031 L 100.710938 257.699219 C 100.710938 261.984375 104.179688 265.457031 108.460938 265.457031 C 112.742188 265.457031 116.210938 261.984375 116.210938 257.699219 L 116.210938 117.582031 C 116.210938 113.292969 112.742188 109.820312 108.460938 109.820312 Z M 108.460938 109.820312"/><path fill="#F178B6" d="M 134.8125 143.28125 C 130.53125 143.28125 127.0625 146.753906 127.0625 151.039062 L 127.0625 224.242188 C 127.0625 228.527344 130.53125 232 134.8125 232 C 139.09375 232 142.5625 228.527344 142.5625 224.242188 L 142.5625 151.039062 C 142.5625 146.753906 139.09375 143.28125 134.8125 143.28125 Z M 134.8125 143.28125"/><g clip-path="url(#b)"><path fill="#F178B6" d="M 161.160156 56.148438 C 156.882812 56.148438 153.414062 59.621094 153.414062 63.90625 L 153.414062 311.375 C 153.414062 315.660156 156.882812 319.132812 161.160156 319.132812 C 165.441406 319.132812 168.910156 315.660156 168.910156 311.375 L 168.910156 63.90625 C 168.910156 59.621094 165.441406 56.148438 161.160156 56.148438 Z M 161.160156 56.148438"/></g><path fill="#F178B6" d="M 187.511719 90.847656 C 183.230469 90.847656 179.761719 94.320312 179.761719 98.605469 L 179.761719 276.675781 C 179.761719 280.960938 183.230469 284.433594 187.511719 284.433594 C 191.792969 284.433594 195.261719 280.960938 195.261719 276.675781 L 195.261719 98.605469 C 195.261719 94.320312 191.792969 90.847656 187.511719 90.847656 Z M 187.511719 90.847656"/><path fill="#F178B6" d="M 213.859375 149.21875 C 209.582031 149.21875 206.113281 152.691406 206.113281 156.976562 L 206.113281 218.300781 C 206.113281 222.589844 209.582031 226.0625 213.859375 226.0625 C 218.140625 226.0625 221.609375 222.589844 221.609375 218.300781 L 221.609375 156.976562 C 221.613281 152.691406 218.140625 149.21875 213.859375 149.21875 Z M 213.859375 149.21875"/><path fill="#F178B6" d="M 240.210938 81.308594 C 235.929688 81.308594 232.460938 84.78125 232.460938 89.066406 L 232.460938 286.214844 C 232.460938 290.5 235.929688 293.972656 240.210938 293.972656 C 244.492188 293.972656 247.960938 290.5 247.960938 286.214844 L 247.960938 89.066406 C 247.960938 84.78125 244.492188 81.308594 240.210938 81.308594 Z M 240.210938 81.308594"/><path fill="#F178B6" d="M 266.5625 111.675781 C 262.28125 111.675781 258.8125 115.148438 258.8125 119.433594 L 258.8125 255.847656 C 258.8125 260.132812 262.28125 263.605469 266.5625 263.605469 C 270.84375 263.605469 274.3125 260.132812 274.3125 255.847656 L 274.3125 119.433594 C 274.3125 115.148438 270.84375 111.675781 266.5625 111.675781 Z M 266.5625 111.675781"/><path fill="#F178B6" d="M 292.910156 157.640625 C 288.628906 157.640625 285.160156 161.113281 285.160156 165.398438 L 285.160156 209.882812 C 285.160156 214.167969 288.628906 217.640625 292.910156 217.640625 C 297.191406 217.640625 300.660156 214.167969 300.660156 209.882812 L 300.660156 165.398438 C 300.660156 161.113281 297.191406 157.640625 292.910156 157.640625 Z M 292.910156 157.640625"/><g clip-path="url(#c)"><path fill="#F178B6" d="M 319.261719 171.578125 C 314.980469 171.578125 311.511719 175.050781 311.511719 179.335938 L 311.511719 195.941406 C 311.511719 200.226562 314.980469 203.699219 319.261719 203.699219 C 323.542969 203.699219 327.011719 200.226562 327.011719 195.941406 L 327.011719 179.335938 C 327.011719 175.050781 323.542969 171.578125 319.261719 171.578125 Z M 319.261719 171.578125"/></g></svg>