<svg xmlns="http://www.w3.org/2000/svg" width="375" viewBox="0 0 375 375" height="375" version="1.0"><defs><clipPath id="a"><path d="M 37.5 69 L 337.5 69 L 337.5 312.339844 L 37.5 312.339844 Z M 37.5 69"/></clipPath></defs><g clip-path="url(#a)"><path fill="#F178B6" d="M 306.515625 129.707031 C 306.691406 132.34375 306.691406 134.984375 306.691406 137.640625 C 306.691406 218.765625 244.921875 312.324219 131.972656 312.324219 L 131.972656 312.273438 C 98.601562 312.328125 65.929688 302.777344 37.84375 284.757812 C 42.691406 285.335938 47.570312 285.628906 52.460938 285.640625 C 80.113281 285.667969 106.972656 276.390625 128.726562 259.308594 C 102.445312 258.8125 79.40625 241.683594 71.355469 216.671875 C 80.5625 218.449219 90.042969 218.085938 99.078125 215.613281 C 70.425781 209.824219 49.816406 184.660156 49.816406 155.433594 C 49.816406 155.164062 49.816406 154.914062 49.816406 154.65625 C 58.351562 159.410156 67.910156 162.046875 77.6875 162.339844 C 50.707031 144.320312 42.390625 108.433594 58.6875 80.371094 C 89.863281 118.730469 135.863281 142.046875 185.242188 144.511719 C 180.292969 123.1875 187.058594 100.847656 203.011719 85.855469 C 227.746094 62.609375 266.644531 63.800781 289.894531 88.515625 C 303.644531 85.804688 316.828125 80.761719 328.890625 73.613281 C 324.304688 87.828125 314.714844 99.902344 301.898438 107.566406 C 314.070312 106.132812 325.964844 102.875 337.164062 97.902344 C 328.914062 110.253906 318.527344 121.015625 306.515625 129.707031 Z M 306.515625 129.707031"/></g></svg>